<svg xmlns="http://www.w3.org/2000/svg" viewBox="0 0 350.64 87.87"><defs><style>.cls-1{fill:#fff;}</style></defs><g id="图层_2" data-name="图层 2"><g id="图层_1-2" data-name="图层 1"><path class="cls-1" d="M67.09,40.41V33.07a3.78,3.78,0,0,0-3.78-3.78H0v50.6A2.34,2.34,0,0,0,3.45,82L65.51,43.48A3.75,3.75,0,0,0,67.09,40.41Z"/><path class="cls-1" d="M134.86.48a9.74,9.74,0,0,0-3-.48H9.9a9.81,9.81,0,0,0-3,.48A9.85,9.85,0,0,0,0,9.9V21.73H141.73V9.9A9.85,9.85,0,0,0,134.86.48Z"/><path class="cls-1" d="M74.65,33.07v7.34a3.77,3.77,0,0,0,1.64,3.11l62,38.43a2.33,2.33,0,0,0,3.44-2.06V29.29H78.43A3.78,3.78,0,0,0,74.65,33.07Z"/><path class="cls-1" d="M87.88,58.26l-6.1-3.78-9.14-5.66a3.73,3.73,0,0,0-3.57,0L60,54.48l-6.09,3.78-45.13,28a.9.9,0,0,0,.51,1.63H132.49a.89.89,0,0,0,.9-.89.87.87,0,0,0-.35-.71Z"/><path class="cls-1" d="M227.35,56.42h26.77V23H226.57V16.87h32.35v-7H226.57V3.42h-8.43V23H193.43V56.42h25.45v6.36H184.55v7.46h34.33V83.83h8.47V70.24h35.12V62.78H227.35ZM201.57,29.67h44.07V36.5H201.57Zm0,20.12v-7h44.07v7Z"/><path class="cls-1" d="M305.21,43.79H299c1.16-10,2.28-24.56,2.95-36H272.56v7.26h21.5c-.59,9.79-1.56,20.68-2.53,28.74H281.25c.74-7.17,1.42-15.95,1.86-23.14l-7.38-.41c-.45,9.7-1.42,22.77-2.54,30.63h23.95c-1,16.58-2.17,23.25-4,25-.8.91-1.7,1-3.21,1-1.76,0-5.75-.09-10-.43a15.51,15.51,0,0,1,2.24,6.78,96,96,0,0,0,11.13,0c2.84-.28,4.72-1,6.51-2.94,2.74-2.89,4-11.34,5.27-33.42C305.16,46,305.21,43.79,305.21,43.79Z"/><path class="cls-1" d="M293.44,57.46c-9,2.14-18.11,4.26-24.5,5.42l1.73,7.19c6.88-1.73,15.36-3.82,23.51-5.86Z"/><path class="cls-1" d="M332.9,59.48c7.48-12.68,12.52-29.08,14.69-49.71l-5.3-1.39-1.39.31h-34v7.8h10.47l-7,1.11c2.82,15.63,6.8,29.72,12.76,41.36a56.73,56.73,0,0,1-19.82,18.23A28.19,28.19,0,0,1,309,83.94,66.22,66.22,0,0,0,327.86,67a57.76,57.76,0,0,0,16.87,16.85,31.34,31.34,0,0,1,5.91-6.55C343.48,73.14,337.64,67,332.9,59.48Zm-14.82-43h20.63c-2,13.15-5.63,24.64-10.59,34.18C323.44,40.65,320.21,29,318.08,16.49Z"/></g></g></svg>